HIERARCHY
ROOT Root
{
  OFFSET 0.0 0.0 0.0
  CHANNELS 6 Xposition Yposition Zposition Zrotation Yrotation Xrotation
  JOINT Hips
  {
    OFFSET 0.0 100.0 0.0
    CHANNELS 6 Xposition Yposition Zposition Zrotation Yrotation Xrotation
    JOINT Spine1
    {
      OFFSET 5.003913 -0.037094 -0.013727
      CHANNELS 3 Zrotation Yrotation Xrotation
      JOINT Spine2
      {
        OFFSET 7.125363 -1e-06 0.0
        CHANNELS 3 Zrotation Yrotation Xrotation
        JOINT Chest
        {
          OFFSET 7.594027 1e-06 0.0
          CHANNELS 3 Zrotation Yrotation Xrotation
          JOINT Neck1
          {
            OFFSET 26.313086 -0.460272 -0.181672
            CHANNELS 3 Zrotation Yrotation Xrotation
            JOINT Neck2
            {
              OFFSET 8.045911 0.0 0.0
              CHANNELS 3 Zrotation Yrotation Xrotation
              JOINT Head
              {
                OFFSET 6.432774 0.0 0.0
                CHANNELS 3 Zrotation Yrotation Xrotation
                JOINT HeadEnd
                {
                  OFFSET 16.169773 0.06451 0.00362
                  CHANNELS 3 Zrotation Yrotation Xrotation
                }
                JOINT Jaw
                {
                  OFFSET 0.108741 3.12938 0.002639
                  CHANNELS 3 Zrotation Yrotation Xrotation
                }
                JOINT LeftEye
                {
                  OFFSET 4.45173 8.166359 3.206392
                  CHANNELS 3 Zrotation Yrotation Xrotation
                }
                JOINT RightEye
                {
                  OFFSET 4.436895 8.135758 -3.222429
                  CHANNELS 3 Zrotation Yrotation Xrotation
                }
              }
            }
          }
          JOINT LeftShoulder
          {
            OFFSET 23.218927 5.195579 1.621656
            CHANNELS 3 Zrotation Yrotation Xrotation
            JOINT LeftArm
            {
              OFFSET 15.902118 2e-06 -2e-06
              CHANNELS 3 Zrotation Yrotation Xrotation
              JOINT LeftForeArm
              {
                OFFSET 28.739307 0.0 -1e-06
                CHANNELS 3 Zrotation Yrotation Xrotation
                JOINT LeftHand
                {
                  OFFSET 27.093981 -4e-06 0.0
                  CHANNELS 3 Zrotation Yrotation Xrotation
                  JOINT LeftHandThumb1
                  {
                    OFFSET 2.276781 3.380274 0.83384
                    CHANNELS 3 Zrotation Yrotation Xrotation
                    JOINT LeftHandThumb2
                    {
                      OFFSET 4.705309 -1e-06 -1e-06
                      CHANNELS 3 Zrotation Yrotation Xrotation
                      JOINT LeftHandThumb3
                      {
                        OFFSET 2.798515 0.0 3e-06
                        CHANNELS 3 Zrotation Yrotation Xrotation
                        JOINT LeftHandThumbEnd
                        {
                          OFFSET 3.180793 4e-06 -4e-06
                          CHANNELS 3 Zrotation Yrotation Xrotation
                        }
                      }
                    }
                  }
                  JOINT LeftHandIndex1
                  {
                    OFFSET 3.247786 2.352677 0.137192
                    CHANNELS 3 Zrotation Yrotation Xrotation
                    JOINT LeftHandIndex2
                    {
                      OFFSET 6.367095 1e-06 0.0
                      CHANNELS 3 Zrotation Yrotation Xrotation
                      JOINT LeftHandIndex3
                      {
                        OFFSET 3.662364 0.0 0.0
                        CHANNELS 3 Zrotation Yrotation Xrotation
                        JOINT LeftHandIndex4
                        {
                          OFFSET 2.329242 4e-06 -4e-06
                          CHANNELS 3 Zrotation Yrotation Xrotation
                          JOINT LeftHandIndexEnd
                          {
                            OFFSET 2.767823 1e-06 0.0
                            CHANNELS 3 Zrotation Yrotation Xrotation
                          }
                        }
                      }
                    }
                  }
                  JOINT LeftHandMiddle1
                  {
                    OFFSET 3.163612 0.945023 -0.406112
                    CHANNELS 3 Zrotation Yrotation Xrotation
                    JOINT LeftHandMiddle2
                    {
                      OFFSET 6.276789 3e-06 0.0
                      CHANNELS 3 Zrotation Yrotation Xrotation
                      JOINT LeftHandMiddle3
                      {
                        OFFSET 4.35652 -1e-06 4e-06
                        CHANNELS 3 Zrotation Yrotation Xrotation
                        JOINT LeftHandMiddle4
                        {
                          OFFSET 2.996877 0.0 8e-06
                          CHANNELS 3 Zrotation Yrotation Xrotation
                          JOINT LeftHandMiddleEnd
                          {
                            OFFSET 2.323256 3e-06 -4e-06
                            CHANNELS 3 Zrotation Yrotation Xrotation
                          }
                        }
                      }
                    }
                  }
                  JOINT LeftHandRing1
                  {
                    OFFSET 2.882606 -0.309162 0.107445
                    CHANNELS 3 Zrotation Yrotation Xrotation
                    JOINT LeftHandRing2
                    {
                      OFFSET 6.033198 0.0 4e-06
                      CHANNELS 3 Zrotation Yrotation Xrotation
                      JOINT LeftHandRing3
                      {
                        OFFSET 4.350578 3e-06 0.0
                        CHANNELS 3 Zrotation Yrotation Xrotation
                        JOINT LeftHandRing4
                        {
                          OFFSET 2.651321 2e-06 -7e-06
                          CHANNELS 3 Zrotation Yrotation Xrotation
                          JOINT LeftHandRingEnd
                          {
                            OFFSET 1.937663 1e-06 -4e-06
                            CHANNELS 3 Zrotation Yrotation Xrotation
                          }
                        }
                      }
                    }
                  }
                  JOINT LeftHandPinky1
                  {
                    OFFSET 2.865315 -1.525436 0.575687
                    CHANNELS 3 Zrotation Yrotation Xrotation
                    JOINT LeftHandPinky2
                    {
                      OFFSET 5.54936 1e-06 -8e-06
                      CHANNELS 3 Zrotation Yrotation Xrotation
                      JOINT LeftHandPinky3
                      {
                        OFFSET 3.070974 0.0 -4e-06
                        CHANNELS 3 Zrotation Yrotation Xrotation
                        JOINT LeftHandPinky4
                        {
                          OFFSET 1.549672 1e-06 0.0
                          CHANNELS 3 Zrotation Yrotation Xrotation
                          JOINT LeftHandPinkyEnd
                          {
                            OFFSET 1.952123 0.0 0.0
                            CHANNELS 3 Zrotation Yrotation Xrotation
                          }
                        }
                      }
                    }
                  }
                }
              }
            }
          }
          JOINT RightShoulder
          {
            OFFSET 23.161716 5.296122 -1.380114
            CHANNELS 3 Zrotation Yrotation Xrotation
            JOINT RightArm
            {
              OFFSET -16.027195 -2e-06 1.1e-05
              CHANNELS 3 Zrotation Yrotation Xrotation
              JOINT RightForeArm
              {
                OFFSET -28.736639 4e-06 2e-06
                CHANNELS 3 Zrotation Yrotation Xrotation
                JOINT RightHand
                {
                  OFFSET -27.133619 6e-06 0.0
                  CHANNELS 3 Zrotation Yrotation Xrotation
                  JOINT RightHandThumb1
                  {
                    OFFSET -2.274328 -3.351035 -0.83067
                    CHANNELS 3 Zrotation Yrotation Xrotation
                    JOINT RightHandThumb2
                    {
                      OFFSET -4.703594 -3e-06 2e-06
                      CHANNELS 3 Zrotation Yrotation Xrotation
                      JOINT RightHandThumb3
                      {
                        OFFSET -2.794935 -4e-06 -3e-06
                        CHANNELS 3 Zrotation Yrotation Xrotation
                        JOINT RightHandThumbEnd
                        {
                          OFFSET -3.183852 4e-06 1e-06
                          CHANNELS 3 Zrotation Yrotation Xrotation
                        }
                      }
                    }
                  }
                  JOINT RightHandIndex1
                  {
                    OFFSET -3.253496 -2.33755 -0.127667
                    CHANNELS 3 Zrotation Yrotation Xrotation
                    JOINT RightHandIndex2
                    {
                      OFFSET -6.344434 0.0 0.0
                      CHANNELS 3 Zrotation Yrotation Xrotation
                      JOINT RightHandIndex3
                      {
                        OFFSET -3.654871 0.0 -8e-06
                        CHANNELS 3 Zrotation Yrotation Xrotation
                        JOINT RightHandIndex4
                        {
                          OFFSET -2.327586 -1e-06 0.0
                          CHANNELS 3 Zrotation Yrotation Xrotation
                          JOINT RightHandIndexEnd
                          {
                            OFFSET -2.770001 3e-06 8e-06
                            CHANNELS 3 Zrotation Yrotation Xrotation
                          }
                        }
                      }
                    }
                  }
                  JOINT RightHandMiddle1
                  {
                    OFFSET -3.168223 -0.944764 0.411762
                    CHANNELS 3 Zrotation Yrotation Xrotation
                    JOINT RightHandMiddle2
                    {
                      OFFSET -6.266691 -1e-06 -4e-06
                      CHANNELS 3 Zrotation Yrotation Xrotation
                      JOINT RightHandMiddle3
                      {
                        OFFSET -4.348901 0.0 0.0
                        CHANNELS 3 Zrotation Yrotation Xrotation
                        JOINT RightHandMiddle4
                        {
                          OFFSET -3.00024 2e-06 -4e-06
                          CHANNELS 3 Zrotation Yrotation Xrotation
                          JOINT RightHandMiddleEnd
                          {
                            OFFSET -2.321477 -4e-06 -4e-06
                            CHANNELS 3 Zrotation Yrotation Xrotation
                          }
                        }
                      }
                    }
                  }
                  JOINT RightHandRing1
                  {
                    OFFSET -2.885654 0.293261 -0.119232
                    CHANNELS 3 Zrotation Yrotation Xrotation
                    JOINT RightHandRing2
                    {
                      OFFSET -6.032835 -1e-06 -4e-06
                      CHANNELS 3 Zrotation Yrotation Xrotation
                      JOINT RightHandRing3
                      {
                        OFFSET -4.33881 0.0 -4e-06
                        CHANNELS 3 Zrotation Yrotation Xrotation
                        JOINT RightHandRing4
                        {
                          OFFSET -2.654903 -4e-06 -4e-06
                          CHANNELS 3 Zrotation Yrotation Xrotation
                          JOINT RightHandRingEnd
                          {
                            OFFSET -1.935122 0.0 4e-06
                            CHANNELS 3 Zrotation Yrotation Xrotation
                          }
                        }
                      }
                    }
                  }
                  JOINT RightHandPinky1
                  {
                    OFFSET -2.866241 1.503904 -0.60527
                    CHANNELS 3 Zrotation Yrotation Xrotation
                    JOINT RightHandPinky2
                    {
                      OFFSET -5.553177 -2e-06 0.0
                      CHANNELS 3 Zrotation Yrotation Xrotation
                      JOINT RightHandPinky3
                      {
                        OFFSET -3.062664 -1e-06 -4e-06
                        CHANNELS 3 Zrotation Yrotation Xrotation
                        JOINT RightHandPinky4
                        {
                          OFFSET -1.546529 2e-06 4e-06
                          CHANNELS 3 Zrotation Yrotation Xrotation
                          JOINT RightHandPinkyEnd
                          {
                            OFFSET -1.952341 0.0 -4e-06
                            CHANNELS 3 Zrotation Yrotation Xrotation
                          }
                        }
                      }
                    }
                  }
                }
              }
            }
          }
        }
      }
    }
    JOINT LeftLeg
    {
      OFFSET -8.443107 2.567604 10.043214
      CHANNELS 3 Zrotation Yrotation Xrotation
      JOINT LeftShin
      {
        OFFSET 43.229198 1e-06 -1e-06
        CHANNELS 3 Zrotation Yrotation Xrotation
        JOINT LeftFoot
        {
          OFFSET 42.298611 1e-06 1e-06
          CHANNELS 3 Zrotation Yrotation Xrotation
          JOINT LeftToeBase
          {
            OFFSET 14.165858 1e-06 0.0
            CHANNELS 3 Zrotation Yrotation Xrotation
            JOINT LeftToeEnd
            {
              OFFSET 6.7141 -0.234461 0.0
              CHANNELS 3 Zrotation Yrotation Xrotation
            }
          }
        }
      }
    }
    JOINT RightLeg
    {
      OFFSET -8.303923 2.592729 -10.047278
      CHANNELS 3 Zrotation Yrotation Xrotation
      JOINT RightShin
      {
        OFFSET -43.369682 0.0 1e-06
        CHANNELS 3 Zrotation Yrotation Xrotation
        JOINT RightFoot
        {
          OFFSET -42.260784 4e-06 2e-06
          CHANNELS 3 Zrotation Yrotation Xrotation
          JOINT RightToeBase
          {
            OFFSET -14.222245 -2e-06 -1e-06
            CHANNELS 3 Zrotation Yrotation Xrotation
            JOINT RightToeEnd
            {
              OFFSET -6.660062 0.232574 -2e-06
              CHANNELS 3 Zrotation Yrotation Xrotation
            }
          }
        }
      }
    }
  }
}
MOTION
Frames: 4
Frame Time: 0.03333333333333333
0.0 0.0 0.0 0.0 -0.0 0.0 48.205967 94.007271 26.954063 87.997849 -2.080837 -86.544991 5.113039 0.267359 -0.83412 -8.980936 -0.797868 -2.071442 21.622326 1.645359 -4.90529 19.790819 -8.830131 2.413592 -2.488042 -0.703971 19.631788 -45.470203 -0.733926 29.178257 6e-06 -0.0 1e-06 0.053382 -0.042287 -0.296698 -0.028257 -0.062773 -0.350641 -0.010248 -0.020682 -0.247142 -46.103416 -76.310753 60.272083 21.654388 -66.146774 -8.111693 64.988411 1.019465 0.154104 -0.265234 34.419731 5.719401 17.636637 -26.322733 52.411194 -19.466663 -14.395598 29.410395 -1e-06 -8.774823 -2e-06 18.674513 -21.682978 6.375318 -0.609773 -1.795655 -3.889327 -4.807088 -11.04681 -2.937853 3e-06 -20.976019 2e-06 -5.01997 -25.033554 -4.031879 6e-06 0.0 -1e-06 -10.634532 -5.686975 -3.565589 10.573272 -17.922949 -3.113899 2e-06 -13.821213 2e-06 -0.501782 -31.181505 -4.027012 -16.710415 -64.679184 11.189323 -13.982714 -7.150201 -2.875042 13.772731 -8.401493 -3.218242 0.347734 -34.211555 0.771654 -0.963029 -17.733372 2.621019 -0.0 1e-06 -1e-06 -17.346416 -20.095221 -4.201784 21.757557 -1.638373 3.86643 1e-06 -6.338826 -5e-06 -1.697592 -22.591747 -6.194003 -2e-06 -6e-06 -1e-06 90.643944 -72.732803 106.974106 60.760044 -54.955276 -18.275858 53.371433 -0.416917 -0.198805 12.195063 14.012852 8.844049 22.182112 -20.375898 49.933315 -16.701809 -16.74353 28.47653 -3e-06 -12.690601 -2e-06 17.219219 -20.452698 3.019726 -0.105922 -1.513858 -4.275879 -5.039041 -5.612871 -2.953556 5e-06 -11.020523 -2e-06 -6.111297 -15.895334 -3.840469 -1e-06 1e-06 1e-06 -10.283373 -5.680288 -4.341838 11.028291 -11.302407 -2.372632 -1.384269 -14.238581 -6.320119 -0.625437 -26.924189 -3.827601 -8.137244 -56.101513 -0.241347 -13.708526 -7.363475 -3.720939 18.141148 -14.052741 -3.242674 4e-06 -18.78727 -1e-06 -0.429712 -8.456047 2.555504 -0.0 2e-06 -0.0 -15.923532 -20.094482 -5.473586 30.41921 -7.19083 1.735925 4e-06 -8.162925 -0.0 -1.861902 -22.861473 -6.167938 2e-06 -5e-06 -2e-06 178.239899 -15.691779 3.540187 23.576103 -0.235203 0.767879 -87.843376 -0.836233 -17.68103 -6.166049 1.448648 2.076246 -1.0 0.0 -0.0 -22.132141 -9.336441 5.076635 44.031021 -0.242302 0.661404 -88.691254 -2.325653 -12.742723 -5.909517 0.799769 1.690355 -1.000001 -0.0 -0.0 
0.0 0.0 0.0 0.0 -0.0 0.0 48.629295 93.938606 27.008148 87.711548 -2.081032 -84.785629 5.349171 0.325866 -0.801814 -8.915586 -0.733902 -1.970682 21.951914 1.650387 -4.783751 19.45809 -9.39248 2.499187 -2.504791 -0.657553 19.435923 -45.774136 -0.497664 29.298506 6e-06 -0.0 0.0 0.074009 -0.05584 -0.333795 0.02777 -0.093883 -0.392041 0.052355 -0.016426 -0.28039 -48.954792 -76.029404 63.676434 21.232243 -67.656975 -5.560437 64.48011 0.815167 -0.369008 -0.28895 35.868729 2.868302 17.636625 -26.322725 52.411194 -19.46666 -14.395596 29.410389 -0.0 -8.774822 -2e-06 19.521667 -22.805616 6.716442 -0.609775 -1.795654 -3.889328 -4.80709 -11.046809 -2.937852 4e-06 -20.976013 -1e-06 -5.019967 -25.033554 -4.031885 6e-06 -0.0 0.0 -10.634532 -5.686972 -3.565591 10.573275 -17.922949 -3.113903 2e-06 -13.821208 2e-06 -0.50178 -31.181505 -4.027016 -20.639442 -67.109703 14.259642 -13.98271 -7.150198 -2.875043 13.772731 -8.401492 -3.218243 0.347738 -34.211544 0.77165 -0.96303 -17.73337 2.621017 -1e-06 0.0 0.0 -17.346418 -20.095219 -4.201784 21.757557 -1.638372 3.86643 0.0 -6.338824 1e-06 -1.697587 -22.591738 -6.194009 -2e-06 -5e-06 -2e-06 91.100838 -72.966377 106.658524 60.534111 -53.985222 -18.544607 53.661179 -0.547726 -0.236279 12.45171 14.358319 9.168435 22.182114 -20.375896 49.933327 -16.701811 -16.74353 28.476532 -2e-06 -12.690599 -1e-06 18.322906 -21.693308 2.919019 -0.105921 -1.513857 -4.275882 -5.03904 -5.61287 -2.953557 4e-06 -11.020524 -3e-06 -6.111299 -15.895332 -3.840471 -1e-06 1e-06 -0.0 -10.283373 -5.680291 -4.341837 11.028292 -11.302406 -2.372632 -1.384267 -14.238579 -6.320123 -0.625442 -26.924194 -3.827599 -9.7759 -59.914974 0.705129 -13.708526 -7.363477 -3.720938 18.141146 -14.052739 -3.242673 6e-06 -18.787266 -3e-06 -0.429712 -8.456047 2.555504 1e-06 1e-06 0.0 -15.923539 -20.094486 -5.473586 30.419218 -7.190827 1.735928 2e-06 -8.162926 -1e-06 -1.861905 -22.861469 -6.167941 2e-06 -4e-06 -1e-06 177.653229 -15.824336 3.954307 23.197668 -0.258592 0.821899 -87.334732 -0.07201 -17.673428 -6.499317 1.444075 2.062784 -1.0 0.0 -0.0 -21.919416 -9.697002 4.364415 44.575008 -0.258665 0.64435 -89.199379 -2.814946 -12.693603 -6.103957 0.899652 1.71016 -1.000001 -0.0 -0.0 
0.0 0.0 0.0 0.0 -0.0 0.0 49.145676 93.84066 27.032978 87.343658 -2.208118 -82.892403 5.685168 0.412903 -0.785586 -8.792794 -0.66169 -1.845485 22.252949 1.637111 -4.669724 19.109564 -10.114751 2.540074 -2.506137 -0.518874 19.302322 -46.136154 -0.207655 29.600292 6e-06 -0.0 1e-06 0.100876 -0.068894 -0.363109 0.062154 -0.125998 -0.430302 0.093552 -0.010329 -0.301208 -51.901447 -75.700676 67.206619 20.476318 -69.217506 -2.11653 63.397667 0.603255 -0.851189 -0.394389 37.185921 0.025282 17.63662 -26.322733 52.411198 -19.466663 -14.3956 29.410393 -1e-06 -8.774822 -1e-06 20.514143 -24.076254 6.980285 -0.609778 -1.795651 -3.889328 -4.807087 -11.046812 -2.93785 6e-06 -20.976019 0.0 -5.019971 -25.033558 -4.031878 7e-06 0.0 -0.0 -10.634537 -5.686969 -3.565585 10.573275 -17.922951 -3.113903 2e-06 -13.821209 2e-06 -0.501776 -31.181505 -4.027016 -27.012312 -69.90992 19.16506 -13.982714 -7.150198 -2.875041 13.772729 -8.401491 -3.218243 0.347734 -34.211544 0.771656 -0.963029 -17.73337 2.621022 -1e-06 -0.0 0.0 -17.346418 -20.095221 -4.201782 21.757557 -1.638375 3.866426 1e-06 -6.338824 2e-06 -1.697591 -22.591742 -6.194002 -1e-06 -5e-06 -4e-06 92.082268 -73.331871 105.701111 59.895966 -53.246563 -18.978052 54.552055 -0.670052 -0.308288 12.725357 15.403008 9.233206 22.182117 -20.3759 49.933323 -16.701811 -16.743525 28.47653 -1e-06 -12.690601 -1e-06 19.714941 -22.982489 2.632203 -0.10592 -1.513856 -4.275886 -5.03904 -5.612872 -2.953555 2e-06 -11.020525 -2e-06 -6.111296 -15.89533 -3.840472 -0.0 -1e-06 0.0 -10.283373 -5.68029 -4.341841 11.028293 -11.302405 -2.372629 -1.384266 -14.238577 -6.320121 -0.625442 -26.924187 -3.827599 -10.787974 -64.852333 0.814574 -13.708527 -7.363479 -3.720943 18.141148 -14.052741 -3.242674 7e-06 -18.78727 -3e-06 -0.429716 -8.456045 2.555503 0.0 1e-06 -0.0 -15.923534 -20.094484 -5.473586 30.41921 -7.190823 1.735925 2e-06 -8.162925 2e-06 -1.861903 -22.861473 -6.167942 -2e-06 -4e-06 -1e-06 177.239227 -15.942005 4.389842 22.678761 -0.279968 0.869214 -86.708649 0.719542 -17.787622 -6.788617 1.450566 2.049009 -0.999999 1e-06 -0.0 -21.566936 -10.12749 3.513027 45.254143 -0.256207 0.624166 -89.780357 -3.350755 -12.535406 -6.322117 1.032179 1.738102 -1.000002 0.0 -0.0 
0.0 0.0 0.0 0.0 -0.0 0.0 49.732883 93.701042 26.982695 86.9123 -2.404596 -80.91806 6.041555 0.548354 -0.798286 -8.644498 -0.57341 -1.619931 22.562826 1.627803 -4.488328 18.761267 -11.077164 2.514272 -2.480035 -0.312801 19.337736 -46.695122 0.16092 29.993307 6e-06 -0.0 -2e-06 0.126454 -0.077017 -0.363751 0.08732 -0.149952 -0.437129 0.128242 -0.002958 -0.296443 -55.338375 -75.319313 71.33773 19.45043 -70.626678 1.979261 61.977924 0.520469 -1.131659 -0.691046 38.158298 -2.69228 17.636629 -26.322729 52.411182 -19.466661 -14.3956 29.410385 1e-06 -8.774821 -2e-06 21.33255 -25.099251 7.1826 -0.609775 -1.795653 -3.889327 -4.807087 -11.04681 -2.937851 4e-06 -20.976011 0.0 -5.019969 -25.033552 -4.03188 5e-06 -0.0 1e-06 -10.634531 -5.686969 -3.565588 10.573271 -17.922947 -3.113899 5e-06 -13.821205 4e-06 -0.501783 -31.181498 -4.027009 -35.308331 -72.228249 25.583569 -13.982712 -7.150197 -2.875043 13.772729 -8.401489 -3.21824 0.347732 -34.211544 0.771655 -0.963029 -17.733368 2.621019 -0.0 -1e-06 1e-06 -17.346416 -20.095213 -4.201783 21.757557 -1.638376 3.866428 2e-06 -6.338821 1e-06 -1.697587 -22.591743 -6.194006 -2e-06 -4e-06 -2e-06 93.488335 -73.803001 104.280106 58.867222 -52.480766 -19.25795 55.740009 -0.738161 -0.41316 12.830379 16.839527 9.442334 22.182114 -20.375895 49.933319 -16.701817 -16.743528 28.476528 -4e-06 -12.6906 -2e-06 21.085461 -23.937269 2.285181 -0.10592 -1.513857 -4.275879 -5.039039 -5.612872 -2.953556 3e-06 -11.020523 -2e-06 -6.111296 -15.89533 -3.840471 0.0 1e-06 0.0 -10.283368 -5.68029 -4.341838 11.028293 -11.302406 -2.372634 -1.384266 -14.238581 -6.32012 -0.625434 -26.924187 -3.827603 -10.338592 -69.633179 -0.320807 -13.708525 -7.363476 -3.720938 18.14115 -14.05274 -3.242674 7e-06 -18.787266 -4e-06 -0.429711 -8.456043 2.555505 2e-06 -0.0 1e-06 -15.923532 -20.094482 -5.473587 30.41921 -7.190828 1.735925 3e-06 -8.162925 -2e-06 -1.861901 -22.861467 -6.167942 1e-06 -4e-06 0.0 176.87265 -16.083811 4.738849 22.245291 -0.286174 0.917572 -86.047165 1.685654 -18.017893 -6.994785 1.45535 2.036398 -0.999999 0.0 -0.0 -21.127359 -10.615967 2.510613 46.090347 -0.238907 0.625118 -90.533508 -3.982769 -12.272655 -6.599792 1.150368 1.762163 -1.000001 -0.0 -0.0 
